<svg xmlns="http://www.w3.org/2000/svg" viewBox="0 0 512 512" width="192" height="192">
    <rect width="512" height="512" fill="#0a0a0c"/>
    <rect x="16" y="16" width="480" height="480" fill="none" stroke="#4a5d23" stroke-width="4"/>
    <path d="M16 80 L16 16 L80 16" fill="none" stroke="#b5a642" stroke-width="6"/>
    <path d="M432 16 L496 16 L496 80" fill="none" stroke="#b5a642" stroke-width="6"/>
    <path d="M496 432 L496 496 L432 496" fill="none" stroke="#b5a642" stroke-width="6"/>
    <path d="M80 496 L16 496 L16 432" fill="none" stroke="#b5a642" stroke-width="6"/>
    <circle cx="256" cy="220" r="120" fill="none" stroke="#4a5d23" stroke-width="4"/>
    <circle cx="256" cy="220" r="100" fill="rgba(74,93,35,0.15)"/>
    <text x="256" y="235" font-family="monospace" font-size="48" font-weight="bold" fill="#b5a642" text-anchor="middle">TEA</text>
    <path d="M256 280 L306 330 L286 330 L286 380 L226 380 L226 330 L206 330 Z" fill="#6b8e23"/>
    <text x="256" y="430" font-family="monospace" font-size="36" font-weight="bold" fill="#e8e8e8" text-anchor="middle" letter-spacing="4">STELLAR</text>
    <text x="256" y="470" font-family="monospace" font-size="28" fill="#b5a642" text-anchor="middle" letter-spacing="6">DESCENT</text>
    <line x1="128" y1="16" x2="128" y2="496" stroke="#1a1a1a" stroke-width="1"/>
    <line x1="384" y1="16" x2="384" y2="496" stroke="#1a1a1a" stroke-width="1"/>
    <line x1="16" y1="128" x2="496" y2="128" stroke="#1a1a1a" stroke-width="1"/>
  </svg>